<?xml version="1.0" encoding="UTF-8"?>
<svg width="30px" height="30px" viewBox="0 0 30 30" version="1.1" xmlns="http://www.w3.org/2000/svg" xmlns:xlink="http://www.w3.org/1999/xlink">
    <!-- Generator: Sketch 51.1 (57501) - http://www.bohemiancoding.com/sketch -->
    <title>Icon / Cross</title>
    <desc>Created with Sketch.</desc>
    <defs></defs>
    <g id="Icon-/-Cross" stroke="none" stroke-width="1" fill="none" fill-rule="evenodd">
        <g id="error" fill="#2C3F6B" fill-rule="nonzero">
            <path d="M15,0 C6.72923077,0 0,6.72865385 0,15 C0,23.2713462 6.72923077,30 15,30 C23.2707692,30 30,23.2713462 30,15 C30,6.72865385 23.2707692,0 15,0 Z M15,28.8461538 C7.36557692,28.8461538 1.15384615,22.6344231 1.15384615,15 C1.15384615,7.36557692 7.36557692,1.15384615 15,1.15384615 C22.6344231,1.15384615 28.8461538,7.36557692 28.8461538,15 C28.8461538,22.6344231 22.6344231,28.8461538 15,28.8461538 Z" id="Shape"></path>
            <path d="M20.6001923,9.39980769 C20.3746154,9.17423077 20.01,9.17423077 19.7844231,9.39980769 L15,14.1842308 L10.2155769,9.39980769 C9.99,9.17423077 9.62538462,9.17423077 9.39980769,9.39980769 C9.17423077,9.62538462 9.17423077,9.99 9.39980769,10.2155769 L14.1842308,15 L9.39980769,19.7844231 C9.17423077,20.01 9.17423077,20.3746154 9.39980769,20.6001923 C9.51230769,20.7126923 9.66,20.7692308 9.80769231,20.7692308 C9.95538462,20.7692308 10.1030769,20.7126923 10.2155769,20.6001923 L15,15.8157692 L19.7844231,20.6001923 C19.8969231,20.7126923 20.0446154,20.7692308 20.1923077,20.7692308 C20.34,20.7692308 20.4876923,20.7126923 20.6001923,20.6001923 C20.8257692,20.3746154 20.8257692,20.01 20.6001923,19.7844231 L15.8157692,15 L20.6001923,10.2155769 C20.8257692,9.99 20.8257692,9.62538462 20.6001923,9.39980769 Z" id="Shape"></path>
        </g>
    </g>
</svg>