<svg width="24" height="24" xmlns="http://www.w3.org/2000/svg" fill-rule="evenodd" clip-rule="evenodd"><path d="M11.415 12.393l1.868-2.289c.425-.544.224-.988-.055-2.165-.205-.871-.044-1.854.572-2.5 1.761-1.844 5.343-5.439 5.343-5.439l.472.37-3.693 4.728.79.617 3.87-4.59.479.373-3.558 4.835.79.618 3.885-4.58.443.347-3.538 4.85.791.617 3.693-4.728.433.338s-2.55 4.36-3.898 6.535c-.479.771-1.425 1.161-2.334 1.167-1.211.007-1.685-.089-2.117.464l-2.281 2.795c2.445 2.962 4.559 5.531 5.573 6.829.771.987.065 2.421-1.198 2.421-.42 0-.853-.171-1.167-.573l-8.36-10.072s-.926.719-1.944 1.518c-3.172-5.184-6.267-11.661-6.267-13.955 0-.128-.034-.924.732-.924.245 0 .493.116.674.344.509.642 5.415 6.513 10.002 12.049m-2.952 3.617l1.953 2.365-4.115 5.055c-.295.378-.736.576-1.182.576-1.198 0-1.991-1.402-1.189-2.428l4.533-5.568z" fill="#030405"/></svg>