<?xml version="1.0" encoding="UTF-8" standalone="no"?>
<svg
   xmlns:dc="http://purl.org/dc/elements/1.1/"
   xmlns:cc="http://creativecommons.org/ns#"
   xmlns:rdf="http://www.w3.org/1999/02/22-rdf-syntax-ns#"
   xmlns:svg="http://www.w3.org/2000/svg"
   xmlns="http://www.w3.org/2000/svg"
   xml:space="preserve"
   style="enable-background:new 0 0 55 55;"
   viewBox="0 0 55 55"
   y="0px"
   x="0px"
   id="Capa_1"
   version="1.1"><metadata
     id="metadata4250"><rdf:RDF><cc:Work
         rdf:about=""><dc:format>image/svg+xml</dc:format><dc:type
           rdf:resource="http://purl.org/dc/dcmitype/StillImage" /><dc:title></dc:title></cc:Work></rdf:RDF></metadata><defs
     id="defs4248" /><g
     id="g5435"><path
       d="M55,27.5C55,12.337,42.663,0,27.5,0S0,12.337,0,27.5c0,8.009,3.444,15.228,8.926,20.258l-0.026,0.023l0.892,0.752  c0.058,0.049,0.121,0.089,0.179,0.137c0.474,0.393,0.965,0.766,1.465,1.127c0.162,0.117,0.324,0.234,0.489,0.348  c0.534,0.368,1.082,0.717,1.642,1.048c0.122,0.072,0.245,0.142,0.368,0.212c0.613,0.349,1.239,0.678,1.88,0.98  c0.047,0.022,0.095,0.042,0.142,0.064c2.089,0.971,4.319,1.684,6.651,2.105c0.061,0.011,0.122,0.022,0.184,0.033  c0.724,0.125,1.456,0.225,2.197,0.292c0.09,0.008,0.18,0.013,0.271,0.021C25.998,54.961,26.744,55,27.5,55  c0.749,0,1.488-0.039,2.222-0.098c0.093-0.008,0.186-0.013,0.279-0.021c0.735-0.067,1.461-0.164,2.178-0.287  c0.062-0.011,0.125-0.022,0.187-0.034c2.297-0.412,4.495-1.109,6.557-2.055c0.076-0.035,0.153-0.068,0.229-0.104  c0.617-0.29,1.22-0.603,1.811-0.936c0.147-0.083,0.293-0.167,0.439-0.253c0.538-0.317,1.067-0.648,1.581-1  c0.185-0.126,0.366-0.259,0.549-0.391c0.439-0.316,0.87-0.642,1.289-0.983c0.093-0.075,0.193-0.14,0.284-0.217l0.915-0.764  l-0.027-0.023C51.523,42.802,55,35.55,55,27.5z M2,27.5C2,13.439,13.439,2,27.5,2S53,13.439,53,27.5  c0,7.577-3.325,14.389-8.589,19.063c-0.294-0.203-0.59-0.385-0.893-0.537l-8.467-4.233c-0.76-0.38-1.232-1.144-1.232-1.993v-2.957  c0.196-0.242,0.403-0.516,0.617-0.817c1.096-1.548,1.975-3.27,2.616-5.123c1.267-0.602,2.085-1.864,2.085-3.289v-3.545  c0-0.867-0.318-1.708-0.887-2.369v-4.667c0.052-0.52,0.236-3.448-1.883-5.864C34.524,9.065,31.541,8,27.5,8  s-7.024,1.065-8.867,3.168c-2.119,2.416-1.935,5.346-1.883,5.864v4.667c-0.568,0.661-0.887,1.502-0.887,2.369v3.545  c0,1.101,0.494,2.128,1.34,2.821c0.81,3.173,2.477,5.575,3.093,6.389v2.894c0,0.816-0.445,1.566-1.162,1.958l-7.907,4.313  c-0.252,0.137-0.502,0.297-0.752,0.476C5.276,41.792,2,35.022,2,27.5z"
       id="path4214" /><g
       id="g4216" /><g
       id="g4218" /><g
       id="g4220" /><g
       id="g4222" /><g
       id="g4224" /><g
       id="g4226" /><g
       id="g4228" /><g
       id="g4230" /><g
       id="g4232" /><g
       id="g4234" /><g
       id="g4236" /><g
       id="g4238" /><g
       id="g4240" /><g
       id="g4242" /><g
       id="g4244" /><g
       id="g5125"
       transform="matrix(0.07715863,0,0,0.07715863,-0.14646793,0.13030454)" /><g
       id="g5127"
       transform="matrix(0.07715863,0,0,0.07715863,-0.14646793,0.13030454)" /><g
       id="g5129"
       transform="matrix(0.07715863,0,0,0.07715863,-0.14646793,0.13030454)" /><g
       id="g5131"
       transform="matrix(0.07715863,0,0,0.07715863,-0.14646793,0.13030454)" /><g
       id="g5133"
       transform="matrix(0.07715863,0,0,0.07715863,-0.14646793,0.13030454)" /><g
       id="g5135"
       transform="matrix(0.07715863,0,0,0.07715863,-0.14646793,0.13030454)" /><g
       id="g5137"
       transform="matrix(0.07715863,0,0,0.07715863,-0.14646793,0.13030454)" /><g
       id="g5139"
       transform="matrix(0.07715863,0,0,0.07715863,-0.14646793,0.13030454)" /><g
       id="g5141"
       transform="matrix(0.07715863,0,0,0.07715863,-0.14646793,0.13030454)" /><g
       id="g5143"
       transform="matrix(0.07715863,0,0,0.07715863,-0.14646793,0.13030454)" /><g
       id="g5145"
       transform="matrix(0.07715863,0,0,0.07715863,-0.14646793,0.13030454)" /><g
       id="g5147"
       transform="matrix(0.07715863,0,0,0.07715863,-0.14646793,0.13030454)" /><g
       id="g5149"
       transform="matrix(0.07715863,0,0,0.07715863,-0.14646793,0.13030454)" /><g
       id="g5151"
       transform="matrix(0.07715863,0,0,0.07715863,-0.14646793,0.13030454)" /><g
       id="g5153"
       transform="matrix(0.07715863,0,0,0.07715863,-0.14646793,0.13030454)" /><g
       id="g5386"
       transform="matrix(0.05621805,0,0,0.05621805,27.28762,30.352644)"><g
         id="g5324"><path
           id="path5326"
           d="m 96,224 c -5.891,0.011 -10.675,-4.757 -10.686,-10.648 -0.005,-2.84 1.123,-5.565 3.134,-7.571 L 195.115,99.115 c 4.237,-4.092 10.99,-3.975 15.083,0.262 3.992,4.134 3.992,10.687 0,14.82 L 103.531,220.864 c -1.996,2.002 -4.704,3.13 -7.531,3.136 z"
           style="fill:#455a64" /><path
           id="path5328"
           d="m 394.667,224 c -2.831,0.005 -5.548,-1.115 -7.552,-3.115 L 280.448,114.219 c -4.092,-4.237 -3.975,-10.99 0.262,-15.083 4.134,-3.992 10.687,-3.992 14.82,0 l 106.667,106.667 c 4.159,4.172 4.149,10.926 -0.024,15.085 -1.993,1.987 -4.691,3.106 -7.506,3.112 z"
           style="fill:#455a64" /></g><path
         id="path5330"
         d="m 53.333,202.667 384,0 c 29.455,0 53.333,23.878 53.333,53.333 l 0,128 c 0,29.455 -23.878,53.333 -53.333,53.333 l -384,0 C 23.878,437.333 0,413.455 0,384 L 0,256 c 0,-29.455 23.878,-53.333 53.333,-53.333 z"
         style="fill:#4caf50" /><g
         id="g5332"><path
           id="path5334"
           d="m 53.333,394.667 c -5.891,0 -10.667,-4.776 -10.667,-10.667 l 0,-128 c 0,-5.891 4.776,-10.667 10.667,-10.667 l 64,0 c 5.891,0 10.667,4.776 10.667,10.667 0,5.891 -4.776,10.667 -10.667,10.667 L 64,266.667 64,384 c 0,5.891 -4.776,10.667 -10.667,10.667 z"
           style="fill:#fafafa" /><path
           id="path5336"
           d="m 96,330.667 -42.667,0 c -5.891,0 -10.667,-4.776 -10.667,-10.667 0,-5.891 4.776,-10.667 10.667,-10.667 l 42.667,0 c 5.891,0 10.667,4.776 10.667,10.667 0,5.891 -4.776,10.667 -10.667,10.667 z"
           style="fill:#fafafa" /><path
           id="path5338"
           d="m 224,394.667 c -2.831,0.005 -5.548,-1.115 -7.552,-3.115 l -45.781,-45.803 0,38.251 c 0,5.891 -4.776,10.667 -10.667,10.667 -5.891,0 -10.667,-4.776 -10.667,-10.667 l 0,-128 c 0,-5.891 4.776,-10.667 10.667,-10.667 l 32,0 c 23.564,0 42.667,19.103 42.667,42.667 0,23.564 -19.103,42.667 -42.667,42.667 l -6.251,0 45.781,45.781 c 4.171,4.16 4.179,10.914 0.019,15.085 -2,2.006 -4.716,3.133 -7.549,3.134 z m -53.333,-85.334 21.333,0 c 11.782,0 21.333,-9.551 21.333,-21.333 0,-11.782 -9.551,-21.333 -21.333,-21.333 l -21.333,0 0,42.666 z"
           style="fill:#fafafa" /><path
           id="path5340"
           d="m 330.667,394.667 -64,0 C 260.776,394.667 256,389.891 256,384 l 0,-128 c 0,-5.891 4.776,-10.667 10.667,-10.667 l 64,0 c 5.891,0 10.667,4.776 10.667,10.667 0,5.891 -4.776,10.667 -10.667,10.667 l -53.333,0 0,106.667 53.333,0 c 5.891,0 10.667,4.776 10.667,10.667 -10e-4,5.89 -4.776,10.666 -10.667,10.666 z"
           style="fill:#fafafa" /><path
           id="path5342"
           d="m 309.333,330.667 -42.667,0 c -5.891,0 -10.667,-4.776 -10.667,-10.667 0,-5.891 4.776,-10.667 10.667,-10.667 l 42.667,0 c 5.891,0 10.667,4.776 10.667,10.667 0,5.891 -4.776,10.667 -10.667,10.667 z"
           style="fill:#fafafa" /><path
           id="path5344"
           d="m 437.333,394.667 -64,0 c -5.891,0 -10.667,-4.776 -10.667,-10.667 l 0,-128 c 0,-5.891 4.776,-10.667 10.667,-10.667 l 64,0 c 5.891,0 10.667,4.776 10.667,10.667 0,5.891 -4.776,10.667 -10.667,10.667 l -53.333,0 0,106.667 53.333,0 c 5.891,0 10.667,4.776 10.667,10.667 0,5.89 -4.776,10.666 -10.667,10.666 z"
           style="fill:#fafafa" /><path
           id="path5346"
           d="m 416,330.667 -42.667,0 c -5.891,0 -10.667,-4.776 -10.667,-10.667 0,-5.891 4.776,-10.667 10.667,-10.667 l 42.667,0 c 5.891,0 10.667,4.776 10.667,10.667 0,5.891 -4.776,10.667 -10.667,10.667 z"
           style="fill:#fafafa" /></g><path
         id="path5348"
         d="M 245.333,160 C 215.878,160 192,136.122 192,106.667 c 0,-29.455 23.878,-53.333 53.333,-53.333 29.455,0 53.333,23.878 53.333,53.333 0,29.455 -23.877,53.333 -53.333,53.333 z"
         style="fill:#607d8b" /><g
         id="g5350" /><g
         id="g5352" /><g
         id="g5354" /><g
         id="g5356" /><g
         id="g5358" /><g
         id="g5360" /><g
         id="g5362" /><g
         id="g5364" /><g
         id="g5366" /><g
         id="g5368" /><g
         id="g5370" /><g
         id="g5372" /><g
         id="g5374" /><g
         id="g5376" /><g
         id="g5378" /></g></g></svg>
