<?xml version="1.0" encoding="UTF-8" standalone="no"?>
<svg
   xmlns:dc="http://purl.org/dc/elements/1.1/"
   xmlns:cc="http://creativecommons.org/ns#"
   xmlns:rdf="http://www.w3.org/1999/02/22-rdf-syntax-ns#"
   xmlns:svg="http://www.w3.org/2000/svg"
   xmlns="http://www.w3.org/2000/svg"
   xml:space="preserve"
   style="enable-background:new 0 0 55 55;"
   viewBox="0 0 55 55"
   y="0px"
   x="0px"
   id="Capa_1"
   version="1.1"><metadata
     id="metadata4250"><rdf:RDF><cc:Work
         rdf:about=""><dc:format>image/svg+xml</dc:format><dc:type
           rdf:resource="http://purl.org/dc/dcmitype/StillImage" /><dc:title></dc:title></cc:Work></rdf:RDF></metadata><defs
     id="defs4248" /><path
     id="path4214"
     d="M 55,27.5 C 55,12.337 42.663,0 27.5,0 12.337,0 0,12.337 0,27.5 0,35.509 3.444,42.728 8.926,47.758 L 8.9,47.781 9.792,48.533 c 0.058,0.049 0.121,0.089 0.179,0.137 0.474,0.393 0.965,0.766 1.465,1.127 0.162,0.117 0.324,0.234 0.489,0.348 0.534,0.368 1.082,0.717 1.642,1.048 0.122,0.072 0.245,0.142 0.368,0.212 0.613,0.349 1.239,0.678 1.88,0.98 0.047,0.022 0.095,0.042 0.142,0.064 2.089,0.971 4.319,1.684 6.651,2.105 0.061,0.011 0.122,0.022 0.184,0.033 0.724,0.125 1.456,0.225 2.197,0.292 0.09,0.008 0.18,0.013 0.271,0.021 0.738,0.061 1.484,0.1 2.24,0.1 0.749,0 1.488,-0.039 2.222,-0.098 0.093,-0.008 0.186,-0.013 0.279,-0.021 0.735,-0.067 1.461,-0.164 2.178,-0.287 0.062,-0.011 0.125,-0.022 0.187,-0.034 2.297,-0.412 4.495,-1.109 6.557,-2.055 0.076,-0.035 0.153,-0.068 0.229,-0.104 0.617,-0.29 1.22,-0.603 1.811,-0.936 0.147,-0.083 0.293,-0.167 0.439,-0.253 0.538,-0.317 1.067,-0.648 1.581,-1 0.185,-0.126 0.366,-0.259 0.549,-0.391 0.439,-0.316 0.87,-0.642 1.289,-0.983 0.093,-0.075 0.193,-0.14 0.284,-0.217 L 46.02,47.857 45.993,47.834 C 51.523,42.802 55,35.55 55,27.5 Z m -53,0 C 2,13.439 13.439,2 27.5,2 41.561,2 53,13.439 53,27.5 c 0,7.577 -3.325,14.389 -8.589,19.063 -0.294,-0.203 -0.59,-0.385 -0.893,-0.537 l -8.467,-4.233 c -0.76,-0.38 -1.232,-1.144 -1.232,-1.993 l 0,-2.957 c 0.196,-0.242 0.403,-0.516 0.617,-0.817 1.096,-1.548 1.975,-3.27 2.616,-5.123 1.267,-0.602 2.085,-1.864 2.085,-3.289 l 0,-3.545 c 0,-0.867 -0.318,-1.708 -0.887,-2.369 l 0,-4.667 c 0.052,-0.52 0.236,-3.448 -1.883,-5.864 C 34.524,9.065 31.541,8 27.5,8 c -4.041,0 -7.024,1.065 -8.867,3.168 -2.119,2.416 -1.935,5.346 -1.883,5.864 l 0,4.667 c -0.568,0.661 -0.887,1.502 -0.887,2.369 l 0,3.545 c 0,1.101 0.494,2.128 1.34,2.821 0.81,3.173 2.477,5.575 3.093,6.389 l 0,2.894 c 0,0.816 -0.445,1.566 -1.162,1.958 l -7.907,4.313 c -0.252,0.137 -0.502,0.297 -0.752,0.476 C 5.276,41.792 2,35.022 2,27.5 Z" /><g
     id="g4216" /><g
     id="g4218" /><g
     id="g4220" /><g
     id="g4222" /><g
     id="g4224" /><g
     id="g4226" /><g
     id="g4228" /><g
     id="g4230" /><g
     id="g4232" /><g
     id="g4234" /><g
     id="g4236" /><g
     id="g4238" /><g
     id="g4240" /><g
     id="g4242" /><g
     id="g4244" /><g
     transform="matrix(0.07715863,0,0,0.07715863,-0.14646793,0.13030454)"
     id="g5125" /><g
     transform="matrix(0.07715863,0,0,0.07715863,-0.14646793,0.13030454)"
     id="g5127" /><g
     transform="matrix(0.07715863,0,0,0.07715863,-0.14646793,0.13030454)"
     id="g5129" /><g
     transform="matrix(0.07715863,0,0,0.07715863,-0.14646793,0.13030454)"
     id="g5131" /><g
     transform="matrix(0.07715863,0,0,0.07715863,-0.14646793,0.13030454)"
     id="g5133" /><g
     transform="matrix(0.07715863,0,0,0.07715863,-0.14646793,0.13030454)"
     id="g5135" /><g
     transform="matrix(0.07715863,0,0,0.07715863,-0.14646793,0.13030454)"
     id="g5137" /><g
     transform="matrix(0.07715863,0,0,0.07715863,-0.14646793,0.13030454)"
     id="g5139" /><g
     transform="matrix(0.07715863,0,0,0.07715863,-0.14646793,0.13030454)"
     id="g5141" /><g
     transform="matrix(0.07715863,0,0,0.07715863,-0.14646793,0.13030454)"
     id="g5143" /><g
     transform="matrix(0.07715863,0,0,0.07715863,-0.14646793,0.13030454)"
     id="g5145" /><g
     transform="matrix(0.07715863,0,0,0.07715863,-0.14646793,0.13030454)"
     id="g5147" /><g
     transform="matrix(0.07715863,0,0,0.07715863,-0.14646793,0.13030454)"
     id="g5149" /><g
     transform="matrix(0.07715863,0,0,0.07715863,-0.14646793,0.13030454)"
     id="g5151" /><g
     transform="matrix(0.07715863,0,0,0.07715863,-0.14646793,0.13030454)"
     id="g5153" /><g
     transform="matrix(1.1230151,0,0,1.1230151,-3.2893086,-6.3351253)"
     id="g5787"><path
       style="fill:#ffdc64"
       d="m 51.308802,39.950184 -7.761267,-0.71983 -3.083012,-7.15901 c -0.215879,-0.501281 -0.926598,-0.501281 -1.142419,0 l -3.083012,7.158952 -7.761267,0.719888 c -0.543471,0.05037 -0.763064,0.726329 -0.353067,1.086534 l 5.8559,5.144311 -1.713745,7.603884 c -0.120011,0.532445 0.455029,0.950159 0.924277,0.671548 l 6.702124,-3.979608 6.702124,3.979608 c 0.469305,0.278669 1.044228,-0.139103 0.924276,-0.671548 l -1.713803,-7.603884 5.855959,-5.144311 c 0.409996,-0.360205 0.190345,-1.036163 -0.353068,-1.086534 z"
       id="path5668" /><path
       style="fill:#ffc850"
       d="m 41.585587,34.674663 -1.121121,-2.603319 c -0.21588,-0.501281 -0.926599,-0.501281 -1.14242,0 l -3.083012,7.158952 -7.761209,0.719888 c -0.543471,0.05037 -0.763064,0.726329 -0.353067,1.086534 l 5.8559,5.144311 -1.713745,7.603884 c -0.120011,0.532445 0.455029,0.950159 0.924277,0.671548 l 0.892011,-0.529659 c 1.46235,-9.466191 5.573457,-16.415068 7.502386,-19.252139 z"
       id="path5682" /></g><g
     transform="matrix(0.06696746,0,0,0.06696746,20.869343,21.317063)"
     id="g5684" /><g
     transform="matrix(0.06696746,0,0,0.06696746,20.869343,21.317063)"
     id="g5686" /><g
     transform="matrix(0.06696746,0,0,0.06696746,20.869343,21.317063)"
     id="g5688" /><g
     transform="matrix(0.06696746,0,0,0.06696746,20.869343,21.317063)"
     id="g5690" /><g
     transform="matrix(0.06696746,0,0,0.06696746,20.869343,21.317063)"
     id="g5692" /><g
     transform="matrix(0.06696746,0,0,0.06696746,20.869343,21.317063)"
     id="g5694" /><g
     transform="matrix(0.06696746,0,0,0.06696746,20.869343,21.317063)"
     id="g5696" /><g
     transform="matrix(0.06696746,0,0,0.06696746,20.869343,21.317063)"
     id="g5698" /><g
     transform="matrix(0.06696746,0,0,0.06696746,20.869343,21.317063)"
     id="g5700" /><g
     transform="matrix(0.06696746,0,0,0.06696746,20.869343,21.317063)"
     id="g5702" /><g
     transform="matrix(0.06696746,0,0,0.06696746,20.869343,21.317063)"
     id="g5704" /><g
     transform="matrix(0.06696746,0,0,0.06696746,20.869343,21.317063)"
     id="g5706" /><g
     transform="matrix(0.06696746,0,0,0.06696746,20.869343,21.317063)"
     id="g5708" /><g
     transform="matrix(0.06696746,0,0,0.06696746,20.869343,21.317063)"
     id="g5710" /><g
     transform="matrix(0.06696746,0,0,0.06696746,20.869343,21.317063)"
     id="g5712" /></svg>